<svg version="1.1" id="Layer_1" xmlns="http://www.w3.org/2000/svg" xmlns:xlink="http://www.w3.org/1999/xlink" x="0px" y="0px"
	 width="100%" viewBox="0 0 351 277" enable-background="new 0 0 351 277" xml:space="preserve">
<path fill="#F4F2F0" opacity="1.000000" stroke="none" 
	d="
M242.000000,278.000000 
	C161.333374,278.000000 81.166740,278.000000 1.000086,278.000000 
	C1.000057,185.666748 1.000057,93.333496 1.000029,1.000185 
	C117.999855,1.000123 234.999710,1.000123 351.999695,1.000062 
	C351.999786,93.333153 351.999786,185.666306 351.999878,277.999725 
	C315.500000,278.000000 279.000000,278.000000 242.000000,278.000000 
M73.449097,132.785675 
	C73.710518,132.590836 73.899254,132.341049 74.445671,131.795212 
	C74.714401,131.591141 74.913788,131.333420 75.464874,130.784576 
	C75.726181,130.582108 75.920708,130.328445 76.467270,129.786835 
	C76.727089,129.585037 76.920540,129.332413 77.459923,128.797318 
	C77.717506,128.602036 77.910271,128.355972 78.705437,127.950584 
	C80.875626,126.462555 83.936462,125.601219 83.225433,121.267754 
	C88.632477,116.195831 94.195541,111.277267 99.388229,105.994644 
	C102.517899,102.810768 101.618645,97.816902 97.869736,94.381966 
	C94.139236,90.963921 90.677055,90.976418 87.142555,94.318405 
	C81.792992,99.376587 76.306335,104.292953 71.042519,109.437973 
	C61.643017,118.625343 52.318974,127.891457 43.068657,137.228928 
	C40.463718,139.858414 39.959789,146.407059 42.001537,148.688293 
	C45.520809,152.620377 49.030758,156.577881 52.792904,160.271851 
	C60.053394,167.400772 67.490898,174.349319 74.843674,181.384506 
	C75.804031,182.303360 76.680450,183.309326 77.625076,184.245331 
	C81.096664,187.685196 84.368202,191.371674 88.131752,194.457031 
	C90.809280,196.652069 94.024254,196.856796 97.201828,194.530960 
	C102.122467,190.929291 102.695976,185.709335 98.236572,180.742172 
	C93.535110,175.505417 88.664871,170.420166 83.698074,164.732620 
	C83.395294,164.526291 83.092514,164.319946 82.898277,164.103424 
	C82.898277,164.103424 82.872391,164.209320 82.702736,163.690308 
	C82.402969,163.502426 82.103203,163.314545 81.893295,163.105316 
	C81.893295,163.105316 81.874146,163.195679 81.700539,162.679016 
	C81.400948,162.490265 81.101357,162.301514 80.904007,162.095108 
	C80.904007,162.095108 80.887848,162.197601 80.707550,161.681717 
	C80.407295,161.492371 80.107040,161.303040 79.903343,161.096313 
	C79.903343,161.096313 79.886581,161.192978 79.705917,160.679016 
	C79.406418,160.490341 79.106918,160.301666 78.904320,160.095856 
	C78.904320,160.095856 78.887535,160.192810 78.704491,159.678925 
	C78.402786,159.493393 78.101074,159.307861 77.900024,159.096939 
	C77.900024,159.096939 77.890816,159.200333 77.685501,158.675644 
	C77.372932,158.485016 77.060371,158.294373 76.308701,157.983047 
	C76.023430,157.815994 75.865593,157.567886 75.687126,156.713333 
	C75.396614,156.506302 75.106094,156.299271 74.916794,156.083160 
	C74.916794,156.083160 74.896477,156.182724 74.711090,155.675461 
	C74.412636,155.491684 74.114189,155.307907 73.911079,155.087601 
	C73.911079,155.087601 73.876610,155.183701 73.702187,154.669434 
	C73.406326,154.475266 73.110466,154.281097 72.910294,154.093002 
	C72.910294,154.093002 72.873657,154.181610 72.886368,153.467087 
	C71.704651,151.928787 70.765022,150.085220 69.290657,148.915924 
	C66.251686,146.505768 65.237717,143.566299 65.986145,139.969879 
	C65.986145,139.969879 65.867088,139.916946 66.358681,139.715652 
	C66.549812,139.425690 66.740944,139.135727 67.064178,138.398865 
	C67.242500,138.107437 67.502464,137.958450 68.508652,137.926437 
	C69.337845,137.284225 70.167038,136.642014 70.990013,135.457489 
	C70.975082,135.277328 70.960159,135.097183 70.940521,134.993088 
	C70.940521,134.993088 70.875290,134.953674 71.357269,134.769958 
	C71.581642,134.516068 71.806015,134.262177 72.456139,133.777512 
	C72.719078,133.574539 72.910362,133.318115 73.449097,132.785675 
M279.953827,108.043312 
	C279.953827,108.043312 279.922729,108.130180 279.763336,107.652504 
	C279.514435,107.435875 279.265503,107.219246 278.791870,106.573845 
	C278.596863,106.303528 278.342896,106.110916 277.934387,105.310669 
	C273.210815,100.839134 268.697754,96.107101 263.653900,92.031944 
	C261.792603,90.528114 258.396881,89.271317 256.597198,93.347420 
	C256.597198,93.347420 256.364349,93.147713 255.809998,93.265999 
	C255.559433,93.536217 255.308868,93.806442 255.005417,94.000031 
	C255.005417,94.000031 255.074020,94.063248 254.626480,94.248756 
	C254.342545,94.436882 254.164444,94.697388 254.074310,95.072632 
	C254.074310,95.072632 254.033112,95.093086 253.574219,95.305283 
	C253.413315,95.595505 253.252411,95.885735 253.076721,96.054390 
	C253.076721,96.054390 253.198883,96.062897 252.545273,96.439064 
	C250.683243,99.998688 249.235931,103.491867 254.683228,106.241806 
	C267.611725,119.004822 280.540222,131.767838 294.167633,145.220840 
	C287.695831,151.358444 281.729218,156.892395 275.905334,162.572723 
	C269.178131,169.134125 262.454437,175.708054 255.973465,182.509262 
	C252.848984,185.788116 253.201538,191.921616 256.124420,194.584641 
	C259.050751,197.250748 263.882629,196.536957 267.542114,192.940247 
	C271.046356,189.496109 274.583252,186.085175 278.575928,182.581177 
	C278.866852,182.212830 279.157745,181.844467 279.257935,181.448730 
	C279.257935,181.448730 279.447540,181.414352 279.903290,181.231964 
	C280.193146,181.037155 280.364136,180.767105 280.267181,179.996765 
	C280.267181,179.996765 280.444336,180.411316 280.901428,180.229996 
	C281.199402,180.039658 281.366974,179.768677 281.256592,179.026535 
	C281.256592,179.026535 281.436951,179.403061 281.899872,179.240982 
	C282.195251,179.051056 282.365356,178.781952 282.409973,178.203461 
	C282.409973,178.203461 282.468750,178.426041 282.995300,178.197296 
	C283.476044,177.615814 283.956787,177.034317 284.060150,176.248688 
	C284.060150,176.248688 284.454742,176.417130 284.905121,176.235474 
	C285.194458,176.045914 285.365082,175.780136 285.285980,175.133118 
	C285.285980,175.133118 285.463135,175.413849 285.912506,175.237061 
	C286.198639,175.046371 286.366852,174.780945 286.470459,174.365997 
	C286.470459,174.365997 286.441437,174.458054 286.964081,174.254852 
	C287.316315,173.833252 287.668549,173.411652 287.991241,172.991241 
	C287.991241,172.991241 287.990082,173.020813 288.565247,172.774414 
	C289.390106,171.851135 290.214966,170.927841 290.996857,169.992950 
	C290.996857,169.992950 291.002686,170.037064 291.568146,169.843475 
	C292.321838,169.214249 293.075562,168.585022 294.332336,167.745575 
	C294.542938,167.456360 294.753510,167.167145 294.959259,166.969254 
	C294.959259,166.969254 294.869415,166.952164 295.345947,166.775192 
	C295.564758,166.524155 295.783600,166.273117 296.429230,165.794586 
	C296.698151,165.598862 296.890900,165.345200 297.440613,164.793839 
	C297.711121,164.589569 297.910583,164.330582 298.461609,163.781631 
	C298.722992,163.578018 298.914520,163.322113 299.460938,162.779663 
	C299.723694,162.575897 299.915558,162.319153 300.460693,161.778610 
	C300.722809,161.575928 300.912811,161.319733 301.456665,160.746735 
	C301.611328,160.456573 301.765961,160.166397 301.961487,159.961014 
	C301.961487,159.961014 301.873657,159.927200 302.363708,159.732925 
	C302.563660,159.450882 302.763580,159.168854 302.972626,158.967194 
	C302.972626,158.967194 302.891754,158.965820 303.372528,158.744339 
	C303.569519,158.458389 303.766510,158.172424 303.969421,157.968750 
	C303.969421,157.968750 303.887085,157.963760 304.369568,157.742950 
	C304.567230,157.456528 304.764893,157.170105 304.967926,156.968018 
	C304.967926,156.968018 304.883606,156.962021 305.365265,156.747818 
	C305.566925,156.467010 305.768585,156.186203 305.976898,155.979111 
	C305.976898,155.979111 305.903259,155.971664 306.382233,155.738571 
	C306.576172,155.448196 306.770111,155.157806 307.084503,154.422028 
	C307.257751,154.132950 307.512695,153.980392 308.350128,153.734711 
	C308.553955,153.436432 308.757782,153.138168 309.075439,152.391373 
	C309.241058,152.097885 309.491547,151.934052 310.560913,151.852814 
	C314.834930,147.485291 315.275482,142.497131 311.649231,138.508392 
	C311.482391,138.324860 310.538483,138.847778 309.318237,138.832443 
	C303.863617,133.247009 298.408997,127.661568 293.147858,121.559486 
	C292.720551,121.052895 292.293243,120.546303 291.446442,119.995941 
	C291.446442,119.995941 291.031189,119.922081 291.013306,119.989655 
	C291.013306,119.989655 291.083008,119.984322 291.016815,119.564995 
	C291.016815,119.564995 290.962372,119.143982 290.784821,118.664116 
	C290.539215,118.434517 290.293610,118.204910 289.802979,117.547890 
	C289.599091,117.280609 289.343536,117.078644 288.792084,116.526566 
	C288.588318,116.268501 288.335785,116.073662 287.791138,115.527351 
	C287.588348,115.268921 287.335724,115.075562 286.793243,114.529037 
	C286.590698,114.269745 286.339020,114.073502 285.789581,113.526260 
	C285.582245,113.269714 285.326050,113.078804 284.783905,112.534454 
	C284.580444,112.275169 284.325745,112.084236 283.783020,111.539185 
	C283.578888,111.277748 283.322540,111.086151 282.787445,110.547661 
	C282.590790,110.287918 282.339966,110.100761 281.791016,109.555710 
	C281.583435,109.287735 281.321655,109.092400 280.742279,108.542488 
	C280.451080,108.387947 280.159882,108.233406 279.953827,108.043312 
M125.051147,78.498489 
	C125.051147,78.498489 125.178886,78.964691 125.038345,79.887871 
	C125.571793,84.958778 126.105247,90.029694 126.892342,95.601112 
	C127.211807,95.785324 127.531273,95.969536 127.941437,96.521332 
	C127.941437,96.521332 128.023895,96.890915 128.582230,97.513550 
	C130.379181,97.673645 132.175842,97.969162 133.973114,97.972824 
	C151.565552,98.008698 169.158340,97.954178 186.750229,98.059464 
	C188.573837,98.070381 190.392227,98.949142 192.005951,100.078796 
	C184.949249,109.700195 177.886185,119.316933 170.837296,128.944061 
	C159.510635,144.413635 148.208099,159.900894 136.861893,175.356110 
	C133.965912,179.300873 130.944092,183.153290 127.535576,187.320999 
	C127.388138,187.630615 127.240707,187.940231 127.107315,188.658356 
	C127.107315,188.658356 126.919388,189.021332 126.148323,189.223083 
	C125.768341,195.324615 125.388359,201.426147 125.008377,207.527679 
	C125.599648,207.367615 126.190926,207.207550 126.900291,207.725998 
	C127.041969,208.153641 127.183647,208.581268 127.411491,209.466125 
	C127.809563,209.682083 128.207642,209.898056 128.820038,210.527649 
	C128.820038,210.527649 129.006729,210.954453 129.591705,211.551834 
	C130.563034,211.700623 131.534256,211.978745 132.505692,211.979462 
	C163.402298,212.002487 194.298920,212.008469 225.195480,211.963379 
	C226.451141,211.961548 227.706055,211.439651 229.426071,211.009552 
	C229.426071,211.009552 229.913818,210.981873 230.367279,210.782776 
	C230.657211,210.603638 230.873123,210.359131 230.998505,209.999954 
	C230.998505,209.999954 231.046555,210.019745 231.777863,209.834320 
	C235.155792,204.352173 234.454346,198.524475 232.954636,192.752014 
	C232.669067,191.652817 231.024933,190.906586 230.005569,189.503815 
	C230.005569,189.503815 230.001221,189.010132 230.001022,188.346802 
	C230.000885,187.904572 230.000763,187.462341 229.820267,186.695465 
	C229.544235,186.798981 229.268219,186.902512 228.326080,187.005692 
	C227.882004,187.002472 227.437927,186.999252 226.390350,186.422653 
	C209.164444,186.304794 191.938583,186.178085 174.712494,186.108246 
	C174.147110,186.105957 173.579376,186.682281 172.337494,187.001663 
	C171.558731,187.334229 170.779968,187.666809 169.225922,187.901215 
	C167.429398,187.631302 165.632889,187.361404 163.272842,186.716522 
	C164.638245,184.378677 165.845459,181.929825 167.395035,179.721191 
	C176.623581,166.567657 185.726669,153.318420 195.274826,140.399109 
	C203.420242,129.377808 212.414429,118.977699 220.412872,107.856682 
	C223.879929,103.036095 229.254639,98.951363 229.006256,91.969086 
	C228.852554,87.648453 228.882401,83.321297 228.968842,78.524948 
	C228.968842,78.524948 228.984055,78.032951 229.200470,77.461365 
	C228.385483,76.664932 227.570496,75.868500 226.346268,75.079361 
	C226.346268,75.079361 225.982040,74.892601 225.348022,74.362289 
	C224.700897,74.243797 224.053818,74.022041 223.406616,74.021645 
	C192.839157,74.003014 162.271652,73.992409 131.704254,74.042267 
	C130.465973,74.044289 129.228622,74.637688 127.803207,75.251884 
	C127.803207,75.251884 127.649742,75.567276 127.060944,75.790573 
	C126.413963,76.533722 125.766983,77.276878 125.051147,78.498489 
z"/>
<path fill="#028DE5" opacity="1.000000" stroke="none" 
	d="
M128.605713,210.114014 
	C128.207642,209.898056 127.809563,209.682083 127.687767,209.231812 
	C128.626740,208.493561 129.859100,207.995453 129.864334,207.484787 
	C129.918686,202.164963 129.845612,196.839630 129.582245,191.527039 
	C129.555283,190.982925 128.061386,190.511551 127.171600,189.758270 
	C127.036476,189.347183 126.977928,189.184250 126.919388,189.021332 
	C126.919388,189.021332 127.107315,188.658356 127.333603,188.327087 
	C127.699966,187.679932 127.840027,187.364044 127.980095,187.048141 
	C130.944092,183.153290 133.965912,179.300873 136.861893,175.356110 
	C148.208099,159.900894 159.510635,144.413635 170.837296,128.944061 
	C177.886185,119.316933 184.949249,109.700195 192.363983,99.578590 
	C193.146545,98.392799 193.571060,97.707214 194.040009,96.730804 
	C194.056488,96.245857 194.028564,96.051727 194.002777,95.641708 
	C194.004929,95.425827 193.998688,94.994095 193.697052,94.706390 
	C183.997681,94.278915 174.600174,94.087463 165.202011,94.046371 
	C163.481537,94.038849 161.758377,94.643036 159.652100,94.982536 
	C158.498505,94.987099 157.729294,94.973976 156.689468,94.690697 
	C153.958237,94.601479 151.497604,94.782410 148.691925,94.980049 
	C147.886475,94.986740 147.426102,94.976730 146.668350,94.684044 
	C141.594009,94.587952 136.817017,94.774536 131.592773,94.982162 
	C129.643219,95.035675 128.140961,95.068138 126.638695,95.100601 
	C126.105247,90.029694 125.571793,84.958778 125.282898,79.319916 
	C125.741882,78.570564 125.886246,78.344437 126.195412,78.039352 
	C126.430275,78.005119 126.903709,77.970596 127.138519,77.874161 
	C127.573334,77.512459 127.773331,77.247185 127.984573,76.990692 
	C127.995819,76.999466 127.981651,76.981735 128.402008,76.989822 
	C130.215317,76.999184 131.608276,77.000450 133.198700,77.244125 
	C134.248962,77.048721 135.101761,76.610901 136.303131,76.138763 
	C137.117554,76.126724 137.583420,76.148994 138.130234,76.514580 
	C140.330109,78.341469 142.378647,79.238716 144.327728,76.125290 
	C145.462845,76.084213 146.221039,76.086555 146.985565,76.316910 
	C146.991882,76.544914 146.999390,77.002724 147.302002,77.289688 
	C148.411942,77.717003 149.219101,77.978912 150.026596,77.979897 
	C169.119980,78.003174 188.213440,78.016685 207.306641,77.956093 
	C208.537262,77.952194 209.765961,77.336807 211.330505,77.003479 
	C212.112152,77.003212 212.558838,77.005348 213.304657,77.291809 
	C218.679169,78.049782 223.754501,78.523430 228.829849,78.997070 
	C228.882401,83.321297 228.852554,87.648453 229.006256,91.969086 
	C229.254639,98.951363 223.879929,103.036095 220.412872,107.856682 
	C212.414429,118.977699 203.420242,129.377808 195.274826,140.399109 
	C185.726669,153.318420 176.623581,166.567657 167.395035,179.721191 
	C165.845459,181.929825 164.638245,184.378677 163.772736,187.181427 
	C168.481079,188.735077 172.689529,189.823837 177.371399,190.938080 
	C195.148315,190.980881 212.451843,190.998184 229.967743,191.330536 
	C232.061081,197.695236 232.187302,203.827621 231.046555,210.019745 
	C231.046555,210.019745 230.998505,209.999954 230.804382,210.048752 
	C230.610245,210.097549 230.205978,210.149796 229.727890,210.088074 
	C203.653076,210.007278 178.056198,210.026108 152.459747,209.930740 
	C148.334381,209.915390 144.210876,209.391388 139.880615,208.846405 
	C138.798248,208.413284 137.921783,208.236282 137.045319,208.059265 
	C137.003494,208.290024 136.961670,208.520798 136.919830,208.751556 
	C137.678085,208.877853 138.436340,209.004150 138.849777,209.374664 
	C135.205215,209.783936 131.905457,209.948975 128.605713,210.114014 
M132.485565,208.571335 
	C132.485565,208.571335 132.430786,208.475281 132.485565,208.571335 
z"/>
<path fill="#028DE6" opacity="1.000000" stroke="none" 
	d="
M75.835205,157.238708 
	C75.865593,157.567886 76.023430,157.815994 76.642776,158.296707 
	C77.281509,158.807022 77.586159,159.003677 77.890816,159.200333 
	C77.890816,159.200333 77.900024,159.096939 77.943497,159.364334 
	C78.287155,159.818756 78.587341,160.005783 78.887535,160.192810 
	C78.887535,160.192810 78.904320,160.095856 78.948868,160.359375 
	C79.291138,160.812912 79.588860,161.002945 79.886581,161.192978 
	C79.886581,161.192978 79.903343,161.096313 79.948227,161.360504 
	C80.291351,161.815674 80.589600,162.006638 80.887848,162.197601 
	C80.887848,162.197601 80.904007,162.095108 80.945145,162.358948 
	C81.282234,162.813766 81.578186,163.004730 81.874146,163.195679 
	C81.874146,163.195679 81.893295,163.105316 81.938477,163.371460 
	C82.279900,163.828171 82.576141,164.018753 82.872391,164.209320 
	C82.872391,164.209320 82.898277,164.103424 82.936378,164.372223 
	C83.272446,164.850235 83.570412,165.059479 83.868378,165.268723 
	C88.664871,170.420166 93.535110,175.505417 98.236572,180.742172 
	C102.695976,185.709335 102.122467,190.929291 97.201828,194.530960 
	C94.024254,196.856796 90.809280,196.652069 88.131752,194.457031 
	C84.368202,191.371674 81.096664,187.685196 77.625076,184.245331 
	C76.680450,183.309326 75.804031,182.303360 74.843674,181.384506 
	C67.490898,174.349319 60.053394,167.400772 52.792904,160.271851 
	C49.030758,156.577881 45.520809,152.620377 42.001537,148.688293 
	C39.959789,146.407059 40.463718,139.858414 43.068657,137.228928 
	C52.318974,127.891457 61.643017,118.625343 71.042519,109.437973 
	C76.306335,104.292953 81.792992,99.376587 87.142555,94.318405 
	C90.677055,90.976418 94.139236,90.963921 97.869736,94.381966 
	C101.618645,97.816902 102.517899,102.810768 99.388229,105.994644 
	C94.195541,111.277267 88.632477,116.195831 82.799881,121.724617 
	C80.948242,123.497025 79.522148,124.812569 77.836136,126.275955 
	C77.402458,126.984352 77.228706,127.544907 77.043259,128.066284 
	C77.031555,128.027084 77.108673,128.054337 76.772888,128.073624 
	C75.971794,128.756531 75.506493,129.420135 75.028091,130.050140 
	C75.014984,130.016525 75.086784,130.023666 74.838348,130.117584 
	C74.399857,130.501053 74.209801,130.790604 74.015694,131.045410 
	C74.011642,131.010681 74.080933,131.020218 73.831985,131.113678 
	C73.394096,131.497559 73.205154,131.787964 73.012344,132.043854 
	C73.008476,132.009338 73.077644,132.015747 72.832611,132.115448 
	C72.396278,132.503128 72.204979,132.791107 72.011261,133.043945 
	C72.008850,133.008820 72.079086,133.013718 71.833664,133.113739 
	C71.396843,133.502289 71.205444,133.790802 71.014503,134.049561 
	C71.014969,134.019806 71.069450,134.044250 70.716492,134.059540 
	C68.899246,135.776886 67.434967,137.478928 65.947517,139.365356 
	C65.924355,139.549728 65.867088,139.916946 65.867088,139.916946 
	C65.867088,139.916946 65.986145,139.969879 65.756378,139.952347 
	C65.526619,139.934814 65.163742,139.991028 64.899933,140.082581 
	C64.427750,140.471603 64.219368,140.769089 64.006638,141.035400 
	C64.002289,141.004227 64.060944,141.027023 63.752945,141.036804 
	C63.003159,141.412476 62.561378,141.778381 62.095634,142.501984 
	C65.672333,146.633667 69.272995,150.407639 72.873657,154.181610 
	C72.873657,154.181610 72.910294,154.093002 72.956131,154.344727 
	C73.293510,154.792191 73.585060,154.987946 73.876610,155.183701 
	C73.876610,155.183701 73.911079,155.087601 73.955948,155.358276 
	C74.299370,155.813553 74.597923,155.998138 74.896477,156.182724 
	C74.896477,156.182724 74.916794,156.083160 74.954651,156.344025 
	C75.273407,156.816177 75.554306,157.027435 75.835205,157.238708 
z"/>
<path fill="#018DE6" opacity="1.000000" stroke="none" 
	d="
M278.105804,182.659653 
	C274.583252,186.085175 271.046356,189.496109 267.542114,192.940247 
	C263.882629,196.536957 259.050751,197.250748 256.124420,194.584641 
	C253.201538,191.921616 252.848984,185.788116 255.973465,182.509262 
	C262.454437,175.708054 269.178131,169.134125 275.905334,162.572723 
	C281.729218,156.892395 287.695831,151.358444 294.167633,145.220840 
	C280.540222,131.767838 267.611725,119.004822 254.240448,105.779182 
	C253.598068,102.232002 253.398468,99.147453 253.198883,96.062897 
	C253.198883,96.062897 253.076721,96.054390 253.320618,96.015816 
	C253.720703,95.682518 253.876907,95.387802 254.033112,95.093086 
	C254.033112,95.093086 254.074310,95.072632 254.313751,94.971123 
	C254.839691,94.673782 255.013306,94.404991 255.074020,94.063248 
	C255.074020,94.063248 255.005417,94.000031 255.299133,93.958138 
	C255.850021,93.660065 256.107178,93.403893 256.364349,93.147713 
	C256.364349,93.147713 256.597198,93.347420 257.063232,93.610748 
	C262.034576,93.193687 265.750946,94.227753 268.705658,98.072189 
	C270.887207,100.910606 273.645142,103.306038 276.254883,106.206039 
	C277.286835,107.012215 278.210144,107.511169 279.330658,108.040871 
	C279.527863,108.071609 279.922729,108.130180 279.922729,108.130180 
	C279.922729,108.130180 279.953827,108.043312 279.945312,108.251305 
	C279.936829,108.459297 279.996124,108.841751 280.087067,109.104568 
	C280.474762,109.573479 280.771515,109.779564 281.036377,109.991501 
	C281.004517,109.997353 281.013916,109.933212 281.111877,110.178322 
	C281.499359,110.609718 281.788879,110.796005 282.043945,110.986404 
	C282.009491,110.990517 282.017426,110.921562 282.113770,111.168655 
	C282.500000,111.604622 282.789886,111.793503 283.045380,111.986038 
	C283.011017,111.989693 283.032379,111.923965 283.061096,112.257629 
	C283.761444,113.043930 284.433075,113.496552 285.068390,113.960205 
	C285.032074,113.971237 285.025024,113.895638 285.131226,114.143929 
	C285.536377,114.579926 285.835388,114.767639 286.092163,114.955437 
	C286.049957,114.955528 286.066467,114.872749 286.089661,115.211792 
	C286.784851,116.011894 287.456848,116.472946 288.086609,116.941612 
	C288.044373,116.949226 288.045990,116.863426 288.135742,117.119263 
	C288.516357,117.574928 288.807220,117.774750 289.059753,117.976349 
	C289.021454,117.978119 289.025635,117.901535 289.123352,118.151733 
	C289.514771,118.592628 289.808502,118.783318 290.069946,118.967758 
	C290.037720,118.961525 290.071503,118.905022 290.156860,119.152023 
	C290.522491,119.594116 290.802765,119.789215 291.083008,119.984322 
	C291.083008,119.984322 291.013306,119.989655 291.033234,120.257149 
	C291.404816,120.961029 291.756500,121.397408 292.320312,121.892258 
	C292.532471,121.950729 292.954376,122.076126 292.954376,122.076126 
	C298.408997,127.661568 303.863617,133.247009 309.820435,139.274048 
	C313.325806,143.617996 312.803345,147.350616 309.453796,151.024719 
	C306.748169,153.781448 304.369995,156.476379 301.964661,159.360657 
	C301.937500,159.550003 301.873657,159.927200 301.873657,159.927200 
	C301.873657,159.927200 301.961487,159.961014 301.752563,159.949310 
	C301.543671,159.937622 301.165131,159.993149 300.822510,160.024384 
	C299.995514,160.725998 299.511139,161.396378 299.016174,162.035950 
	C299.005554,162.005112 299.070160,162.013992 298.823730,162.109436 
	C298.390320,162.494278 298.203278,162.783676 298.011414,163.039764 
	C298.006561,163.006439 298.073181,163.016113 297.825195,163.110550 
	C297.389648,163.495895 297.202026,163.786789 297.010986,164.043854 
	C297.007507,164.010010 297.073273,164.027451 296.740662,164.055817 
	C295.944580,164.743744 295.481110,165.403290 295.013000,166.037659 
	C295.008331,166.012497 295.057434,166.028595 294.709412,166.046753 
	C293.241821,167.388977 292.122253,168.713028 291.002686,170.037079 
	C291.002686,170.037064 290.996857,169.992950 290.673004,170.020615 
	C289.562805,171.039124 288.776428,172.029968 287.990082,173.020813 
	C287.990082,173.020813 287.991241,172.991241 287.684509,173.020569 
	C287.065674,173.519272 286.753571,173.988663 286.441437,174.458054 
	C286.441437,174.458054 286.470459,174.365997 286.144104,174.380798 
	C285.699554,174.735031 285.581329,175.074432 285.463135,175.413849 
	C285.463135,175.413849 285.285980,175.133118 285.051819,175.265350 
	C284.696686,175.737427 284.575714,176.077286 284.454742,176.417130 
	C284.454742,176.417130 284.060150,176.248688 283.903625,176.306671 
	C283.321014,177.051788 282.894867,177.738922 282.468750,178.426041 
	C282.468750,178.426041 282.409973,178.203461 282.110535,178.297699 
	C281.686371,178.728973 281.561676,179.066010 281.436951,179.403061 
	C281.436951,179.403061 281.256592,179.026535 281.028961,179.204010 
	C280.682343,179.724747 280.563324,180.068039 280.444336,180.411316 
	C280.444336,180.411316 280.267181,179.996765 280.039307,180.191589 
	C279.690125,180.729050 279.568848,181.071701 279.447540,181.414352 
	C279.447540,181.414352 279.257935,181.448730 279.073090,181.397125 
	C278.627441,181.783554 278.366638,182.221603 278.105804,182.659653 
z"/>
<path fill="#016CBF" opacity="1.000000" stroke="none" 
	d="
M126.765518,95.350861 
	C128.140961,95.068138 129.643219,95.035675 132.054016,94.999283 
	C137.630280,94.985809 142.297989,94.976257 146.965714,94.966721 
	C147.426102,94.976730 147.886475,94.986740 149.130829,94.990723 
	C152.263214,94.976746 154.611649,94.968796 156.960083,94.960846 
	C157.729294,94.973976 158.498505,94.987099 160.116425,94.993942 
	C171.976334,94.989815 182.987503,94.991951 193.998688,94.994095 
	C193.998688,94.994095 194.004929,95.425827 193.717163,95.667191 
	C192.917862,96.121109 192.406342,96.333656 191.435120,96.585899 
	C172.014450,96.625648 153.053482,96.625710 133.761902,96.417320 
	C131.571091,96.190498 129.710907,96.172127 127.850731,96.153748 
	C127.531273,95.969536 127.211807,95.785324 126.765518,95.350861 
z"/>
<path fill="#FCF1E1" opacity="1.000000" stroke="none" 
	d="
M226.993851,186.996033 
	C227.437927,186.999252 227.882004,187.002472 228.911285,187.009644 
	C229.664551,187.015778 229.832581,187.017944 230.000626,187.020111 
	C230.000763,187.462341 230.000885,187.904572 229.532318,188.678192 
	C209.376160,188.672852 189.688690,188.336121 170.001221,187.999390 
	C170.779968,187.666809 171.558731,187.334229 173.142227,186.998291 
	C191.629257,186.995270 209.311554,186.995651 226.993851,186.996033 
z"/>
<path fill="#2778A7" opacity="1.000000" stroke="none" 
	d="
M128.712875,210.320831 
	C131.905457,209.948975 135.205215,209.783936 139.072021,209.373505 
	C139.639069,209.128098 140.086517,209.102509 140.086517,209.102509 
	C144.210876,209.391388 148.334381,209.915390 152.459747,209.930740 
	C178.056198,210.026108 203.653076,210.007278 229.665039,210.299393 
	C230.080292,210.572449 229.913818,210.981873 229.913818,210.981873 
	C229.913818,210.981873 229.426071,211.009552 228.731323,211.021393 
	C195.026627,211.006973 162.016678,210.980713 129.006729,210.954453 
	C129.006729,210.954453 128.820038,210.527649 128.712875,210.320831 
z"/>
<path fill="#F6FEFC" opacity="1.000000" stroke="none" 
	d="
M129.299225,211.253143 
	C162.016678,210.980713 195.026627,211.006973 228.498947,211.096649 
	C227.706055,211.439651 226.451141,211.961548 225.195480,211.963379 
	C194.298920,212.008469 163.402298,212.002487 132.505692,211.979462 
	C131.534256,211.978745 130.563034,211.700623 129.299225,211.253143 
z"/>
<path fill="#2179AA" opacity="1.000000" stroke="none" 
	d="
M146.979233,76.088913 
	C146.221039,76.086555 145.462845,76.084213 143.908646,76.081894 
	C141.424866,76.111710 139.737076,76.141495 138.049301,76.171272 
	C137.583420,76.148994 137.117554,76.126724 135.938507,76.094688 
	C134.489059,76.069534 133.752792,76.054138 132.597488,76.021667 
	C130.788300,76.005753 129.398163,76.006905 127.917130,75.898926 
	C127.826256,75.789803 127.649742,75.567276 127.649742,75.567276 
	C127.649742,75.567276 127.803207,75.251884 128.365906,75.124771 
	C161.279755,74.962631 193.630890,74.927620 225.982040,74.892601 
	C225.982040,74.892601 226.346268,75.079361 226.602753,75.277634 
	C226.859238,75.475914 226.766953,75.882263 226.562653,75.921234 
	C226.358368,75.960197 225.952576,76.051689 225.529205,76.034103 
	C223.404541,76.047028 221.703232,76.077538 219.602448,76.092178 
	C218.137161,76.087074 217.071381,76.097855 215.539352,76.069016 
	C209.716553,76.050407 204.360016,76.071404 198.574631,76.076965 
	C196.429352,76.078461 194.712906,76.095398 192.581787,76.072968 
	C190.779648,76.058403 189.392197,76.083206 187.670044,76.096840 
	C186.888931,76.093544 186.442520,76.101418 185.560638,76.071182 
	C183.085190,76.056946 181.045227,76.080811 178.604614,76.088150 
	C177.135086,76.083054 176.066208,76.094482 174.530762,76.068008 
	C165.035889,76.049698 156.007553,76.069305 146.979233,76.088913 
z"/>
<path fill="#F4FFFC" opacity="1.000000" stroke="none" 
	d="
M225.665039,74.627441 
	C193.630890,74.927620 161.279755,74.962631 128.459717,74.976601 
	C129.228622,74.637688 130.465973,74.044289 131.704254,74.042267 
	C162.271652,73.992409 192.839157,74.003014 223.406616,74.021645 
	C224.053818,74.022041 224.700897,74.243797 225.665039,74.627441 
z"/>
<path fill="#F4FFFC" opacity="1.000000" stroke="none" 
	d="
M169.613571,187.950317 
	C189.688690,188.336121 209.376160,188.672852 229.532425,189.009857 
	C230.001221,189.010132 230.005569,189.503815 229.951828,189.803650 
	C229.898087,190.103470 229.790039,190.211014 229.337341,190.165497 
	C212.588821,190.076248 196.292984,190.015533 179.997223,190.028671 
	C178.963913,190.029510 177.931046,190.604645 176.897980,190.912598 
	C172.689529,189.823837 168.481079,188.735077 164.054489,187.368912 
	C165.632889,187.361404 167.429398,187.631302 169.613571,187.950317 
z"/>
<path fill="#F6FEFC" opacity="1.000000" stroke="none" 
	d="
M134.092529,96.625763 
	C153.053482,96.625710 172.014450,96.625648 191.767120,96.730972 
	C193.037750,96.898109 193.516663,96.959869 193.995590,97.021637 
	C193.571060,97.707214 193.146545,98.392799 192.467529,99.251801 
	C190.392227,98.949142 188.573837,98.070381 186.750229,98.059464 
	C169.158340,97.954178 151.565552,98.008698 133.973114,97.972824 
	C132.175842,97.969162 130.379181,97.673645 128.739212,97.225914 
	C130.628311,96.834106 132.360413,96.729935 134.092529,96.625763 
z"/>
<path fill="#F4FFFC" opacity="1.000000" stroke="none" 
	d="
M276.146271,105.898834 
	C273.645142,103.306038 270.887207,100.910606 268.705658,98.072189 
	C265.750946,94.227753 262.034576,93.193687 257.214752,93.634323 
	C258.396881,89.271317 261.792603,90.528114 263.653900,92.031944 
	C268.697754,96.107101 273.210815,100.839134 277.951843,105.676437 
	C277.969330,106.042213 277.914001,106.094658 277.619904,106.051788 
	C276.932617,105.972229 276.539459,105.935532 276.146271,105.898834 
z"/>
<path fill="#EAF3FA" opacity="1.000000" stroke="none" 
	d="
M226.692108,186.709351 
	C209.311554,186.995651 191.629257,186.995270 173.479858,186.991882 
	C173.579376,186.682281 174.147110,186.105957 174.712494,186.108246 
	C191.938583,186.178085 209.164444,186.304794 226.692108,186.709351 
z"/>
<path fill="#0092F1" opacity="1.000000" stroke="none" 
	d="
M127.248184,190.006409 
	C128.061386,190.511551 129.555283,190.982925 129.582245,191.527039 
	C129.845612,196.839630 129.918686,202.164963 129.864334,207.484787 
	C129.859100,207.995453 128.626740,208.493561 127.644684,209.003204 
	C127.183647,208.581268 127.041969,208.153641 126.939041,206.924072 
	C127.067924,200.750229 127.158051,195.378311 127.248184,190.006409 
z"/>
<path fill="#F4FFFC" opacity="1.000000" stroke="none" 
	d="
M231.412201,209.927032 
	C232.187302,203.827621 232.061081,197.695236 229.988831,191.129929 
	C229.797516,190.614258 229.790039,190.211014 229.790039,190.211014 
	C229.790039,190.211014 229.898087,190.103470 229.952850,190.050476 
	C231.024933,190.906586 232.669067,191.652817 232.954636,192.752014 
	C234.454346,198.524475 235.155792,204.352173 231.412201,209.927032 
z"/>
<path fill="#F6FEFC" opacity="1.000000" stroke="none" 
	d="
M65.163742,139.991028 
	C65.163742,139.991028 65.526619,139.934814 65.707840,139.908890 
	C65.237717,143.566299 66.251686,146.505768 69.290657,148.915924 
	C70.765022,150.085220 71.704651,151.928787 72.880013,153.824341 
	C69.272995,150.407639 65.672333,146.633667 62.395149,142.459930 
	C63.166065,141.715775 63.613503,141.371399 64.060944,141.027023 
	C64.060944,141.027023 64.002289,141.004227 64.270828,140.947937 
	C64.747490,140.591446 64.955612,140.291245 65.163742,139.991028 
z"/>
<path fill="#F6FEFC" opacity="1.000000" stroke="none" 
	d="
M127.171600,189.758270 
	C127.158051,195.378311 127.067924,200.750229 126.879990,206.584808 
	C126.190926,207.207550 125.599648,207.367615 125.008377,207.527679 
	C125.388359,201.426147 125.768341,195.324615 126.533859,189.122208 
	C126.977928,189.184250 127.036476,189.347183 127.171600,189.758270 
z"/>
<path fill="#F4FFFC" opacity="1.000000" stroke="none" 
	d="
M309.781219,150.962906 
	C312.803345,147.350616 313.325806,143.617996 310.139557,139.378662 
	C310.538483,138.847778 311.482391,138.324860 311.649231,138.508392 
	C315.275482,142.497131 314.834930,147.485291 310.223206,151.640350 
	C309.885498,151.427887 309.781219,150.962906 309.781219,150.962906 
z"/>
<path fill="#0092F1" opacity="1.000000" stroke="none" 
	d="
M216.005600,76.108627 
	C217.071381,76.097855 218.137161,76.087074 219.867752,76.333633 
	C222.339233,76.411217 224.145905,76.231453 225.952576,76.051689 
	C225.952576,76.051689 226.358368,75.960197 226.722870,76.193802 
	C227.719589,76.962593 228.351822,77.497772 228.984055,78.032959 
	C228.984055,78.032951 228.968842,78.524948 228.899353,78.761009 
	C223.754501,78.523430 218.679169,78.049782 213.635223,77.288040 
	C214.446274,76.702843 215.225937,76.405731 216.005600,76.108627 
z"/>
<path fill="#F4FFFC" opacity="1.000000" stroke="none" 
	d="
M252.872070,96.250977 
	C253.398468,99.147453 253.598068,102.232002 253.935547,105.647392 
	C249.235931,103.491867 250.683243,99.998688 252.872070,96.250977 
z"/>
<path fill="#1C7CC3" opacity="1.000000" stroke="none" 
	d="
M309.453796,151.024719 
	C309.781219,150.962906 309.885498,151.427887 309.856171,151.663895 
	C309.491547,151.934052 309.241058,152.097885 308.772278,152.735870 
	C308.262512,153.375031 308.055908,153.669693 307.849335,153.964355 
	C307.512695,153.980392 307.257751,154.132950 306.780945,154.756714 
	C306.285980,155.384811 306.094604,155.678238 305.903259,155.971664 
	C305.903259,155.971664 305.976898,155.979111 305.718506,156.029953 
	C305.267975,156.374542 305.075806,156.668289 304.883606,156.962036 
	C304.883606,156.962021 304.967926,156.968018 304.712341,157.021667 
	C304.266876,157.371460 304.076965,157.667603 303.887085,157.963760 
	C303.887085,157.963760 303.969421,157.968750 303.715271,158.024933 
	C303.271301,158.376022 303.081543,158.670929 302.891754,158.965820 
	C302.891754,158.965820 302.972626,158.967194 302.723145,158.991882 
	C302.313049,159.068161 302.152405,159.119736 301.991791,159.171295 
	C304.369995,156.476379 306.748169,153.781448 309.453796,151.024719 
z"/>
<path fill="#F4FFFC" opacity="1.000000" stroke="none" 
	d="
M78.096062,126.128113 
	C79.522148,124.812569 80.948242,123.497025 82.668320,122.041107 
	C83.936462,125.601219 80.875626,126.462555 78.350388,127.976288 
	C77.995331,128.001999 77.947922,127.948578 77.992371,127.646492 
	C78.056564,126.938972 78.076309,126.533546 78.096062,126.128113 
z"/>
<path fill="#1C7CC3" opacity="1.000000" stroke="none" 
	d="
M65.970688,139.180984 
	C67.434967,137.478928 68.899246,135.776886 70.671585,134.287750 
	C70.979630,134.500656 70.875290,134.953674 70.875290,134.953674 
	C70.875290,134.953674 70.940521,134.993088 70.689926,135.036438 
	C70.244095,135.367249 70.048851,135.654678 69.582611,136.049896 
	C68.822418,136.755768 68.333237,137.353851 67.844055,137.951920 
	C67.502464,137.958450 67.242500,138.107437 66.757195,138.703918 
	C66.290367,139.066315 66.130531,139.123657 65.970688,139.180984 
z"/>
<path fill="#1C7CC3" opacity="1.000000" stroke="none" 
	d="
M291.285400,169.940277 
	C292.122253,168.713028 293.241821,167.388977 294.663605,166.277954 
	C294.965820,166.490997 294.869415,166.952164 294.869415,166.952164 
	C294.869415,166.952164 294.959259,166.969254 294.704224,167.019775 
	C294.242554,167.365479 294.035919,167.660645 293.829285,167.955811 
	C293.075562,168.585022 292.321838,169.214249 291.285400,169.940277 
z"/>
<path fill="#F4FFFC" opacity="1.000000" stroke="none" 
	d="
M229.092255,77.747162 
	C228.351822,77.497772 227.719589,76.962593 226.927155,76.154839 
	C226.766953,75.882263 226.859238,75.475914 226.807373,75.273994 
	C227.570496,75.868500 228.385483,76.664932 229.092255,77.747162 
z"/>
<path fill="#60A9CF" opacity="1.000000" stroke="none" 
	d="
M133.761902,96.417313 
	C132.360413,96.729935 130.628311,96.834106 128.460052,96.914597 
	C128.023895,96.890915 127.941437,96.521332 127.896088,96.337540 
	C129.710907,96.172127 131.571091,96.190498 133.761902,96.417313 
z"/>
<path fill="#1C7CC3" opacity="1.000000" stroke="none" 
	d="
M288.277649,172.897614 
	C288.776428,172.029968 289.562805,171.039124 290.694458,170.026413 
	C290.214966,170.927841 289.390106,171.851135 288.277649,172.897614 
z"/>
<path fill="#F6FEFC" opacity="1.000000" stroke="none" 
	d="
M68.176353,137.939178 
	C68.333237,137.353851 68.822418,136.755768 69.868454,136.073395 
	C70.615616,135.992661 70.805923,135.996231 70.996231,135.999802 
	C70.167038,136.642014 69.337845,137.284225 68.176353,137.939178 
z"/>
<path fill="#2179AA" opacity="1.000000" stroke="none" 
	d="
M126.903717,77.970596 
	C126.903709,77.970596 126.430275,78.005119 125.986191,78.014847 
	C125.542099,78.024574 125.120003,78.020035 125.119995,78.020035 
	C125.766983,77.276878 126.413963,76.533722 127.355347,75.678925 
	C127.649742,75.567276 127.826256,75.789803 127.910057,76.142136 
	C127.993858,76.494469 127.981651,76.981735 127.981651,76.981735 
	C127.981651,76.981735 127.995819,76.999466 127.756821,77.094589 
	C127.313118,77.450012 127.108421,77.710304 126.903717,77.970596 
z"/>
<path fill="#1C7CC3" opacity="1.000000" stroke="none" 
	d="
M282.732025,178.311676 
	C282.894867,177.738922 283.321014,177.051788 284.092346,176.408737 
	C283.956787,177.034317 283.476044,177.615814 282.732025,178.311676 
z"/>
<path fill="#F4FFFC" opacity="1.000000" stroke="none" 
	d="
M293.051117,121.817810 
	C292.954376,122.076126 292.532471,121.950729 292.302429,121.591621 
	C292.003540,120.834908 291.934753,120.437309 291.865936,120.039703 
	C292.293243,120.546303 292.720551,121.052895 293.051117,121.817810 
z"/>
<path fill="#1C7CC3" opacity="1.000000" stroke="none" 
	d="
M278.340881,182.620422 
	C278.366638,182.221603 278.627441,181.783554 279.168457,181.410812 
	C279.157745,181.844467 278.866852,182.212830 278.340881,182.620422 
z"/>
<path fill="#1C7CC3" opacity="1.000000" stroke="none" 
	d="
M291.656189,120.017822 
	C291.934753,120.437309 292.003540,120.834908 292.090271,121.533150 
	C291.756500,121.397408 291.404816,120.961029 291.042175,120.223358 
	C291.031189,119.922081 291.446442,119.995941 291.656189,120.017822 
z"/>
<path fill="#1C7CC3" opacity="1.000000" stroke="none" 
	d="
M286.702759,174.356445 
	C286.753571,173.988663 287.065674,173.519272 287.699280,173.019958 
	C287.668549,173.411652 287.316315,173.833252 286.702759,174.356445 
z"/>
<path fill="#F4FFFC" opacity="1.000000" stroke="none" 
	d="
M298.039001,164.016861 
	C297.910583,164.330582 297.711121,164.589569 297.200134,164.882294 
	C296.959686,164.970764 296.905670,164.913193 296.949158,164.692047 
	C296.992615,164.470917 297.073273,164.027451 297.073273,164.027451 
	C297.073273,164.027451 297.007507,164.010010 297.238831,164.009064 
	C297.470184,164.008102 297.922638,163.922546 297.950684,163.947433 
	C297.978699,163.972321 298.039001,164.016861 298.039001,164.016861 
z"/>
<path fill="#F4FFFC" opacity="1.000000" stroke="none" 
	d="
M296.983582,165.002197 
	C296.890900,165.345200 296.698151,165.598862 296.193207,165.876221 
	C295.957184,165.957840 295.905975,165.897537 295.989990,165.661652 
	C296.351227,165.254929 296.628448,165.084061 296.905670,164.913208 
	C296.905670,164.913193 296.959686,164.970764 296.983582,165.002197 
z"/>
<path fill="#F6FEFC" opacity="1.000000" stroke="none" 
	d="
M83.783234,165.000671 
	C83.570412,165.059479 83.272446,164.850235 82.882111,164.377304 
	C83.092514,164.319946 83.395294,164.526291 83.783234,165.000671 
z"/>
<path fill="#F4FFFC" opacity="1.000000" stroke="none" 
	d="
M304.128326,157.853363 
	C304.076965,157.667603 304.266876,157.371460 304.709656,156.979492 
	C304.764893,157.170105 304.567230,157.456528 304.128326,157.853363 
z"/>
<path fill="#F6FEFC" opacity="1.000000" stroke="none" 
	d="
M79.796249,160.936005 
	C79.588860,161.002945 79.291138,160.812912 78.900421,160.367935 
	C79.106918,160.301666 79.406418,160.490341 79.796249,160.936005 
z"/>
<path fill="#F4FFFC" opacity="1.000000" stroke="none" 
	d="
M299.036194,163.013931 
	C298.914520,163.322113 298.722992,163.578018 298.250305,163.899246 
	C298.039001,164.016861 297.978699,163.972321 297.992737,163.721558 
	C298.006744,163.470795 298.073181,163.016113 298.073181,163.016113 
	C298.073181,163.016113 298.006561,163.006439 298.237610,163.004761 
	C298.468658,163.003098 298.917938,162.918076 298.946442,162.943344 
	C298.974945,162.968613 299.036194,163.013931 299.036194,163.013931 
z"/>
<path fill="#F6FEFC" opacity="1.000000" stroke="none" 
	d="
M82.787560,163.949814 
	C82.576141,164.018753 82.279900,163.828171 81.893547,163.382126 
	C82.103203,163.314545 82.402969,163.502426 82.787560,163.949814 
z"/>
<path fill="#F4FFFC" opacity="1.000000" stroke="none" 
	d="
M300.036591,162.009445 
	C299.915558,162.319153 299.723694,162.575897 299.248566,162.896790 
	C299.036194,163.013931 298.974945,162.968613 298.988312,162.717957 
	C299.001678,162.467316 299.070160,162.013992 299.070160,162.013992 
	C299.070160,162.013992 299.005554,162.005112 299.239990,162.000046 
	C299.474426,161.994980 299.919525,161.910141 299.947449,161.936554 
	C299.975342,161.962982 300.036591,162.009445 300.036591,162.009445 
z"/>
<path fill="#F6FEFC" opacity="1.000000" stroke="none" 
	d="
M81.787338,162.937347 
	C81.578186,163.004730 81.282234,162.813766 80.894020,162.367783 
	C81.101357,162.301514 81.400948,162.490265 81.787338,162.937347 
z"/>
<path fill="#F4FFFC" opacity="1.000000" stroke="none" 
	d="
M301.030670,161.010025 
	C300.912811,161.319733 300.722809,161.575928 300.248657,161.894028 
	C300.036591,162.009445 299.975342,161.962982 300.030151,161.700500 
	C300.360229,161.264557 300.635498,161.091125 300.939758,160.942078 
	C300.968719,160.966446 301.030670,161.010025 301.030670,161.010025 
z"/>
<path fill="#F6FEFC" opacity="1.000000" stroke="none" 
	d="
M80.797699,161.939667 
	C80.589600,162.006638 80.291351,161.815674 79.899948,161.369202 
	C80.107040,161.303040 80.407295,161.492371 80.797699,161.939667 
z"/>
<path fill="#F4FFFC" opacity="1.000000" stroke="none" 
	d="
M301.165131,159.993149 
	C301.165131,159.993149 301.543671,159.937622 301.732147,159.906921 
	C301.765961,160.166397 301.611328,160.456573 301.243652,160.878387 
	C301.030670,161.010025 300.968719,160.966446 300.994995,160.708633 
	C301.021240,160.450821 301.165131,159.993149 301.165131,159.993149 
z"/>
<path fill="#F4FFFC" opacity="1.000000" stroke="none" 
	d="
M295.107666,166.863678 
	C294.869415,166.952164 294.965820,166.490997 295.011627,166.259796 
	C295.057434,166.028595 295.008331,166.012497 295.235352,165.997284 
	C295.462341,165.982056 295.905975,165.897537 295.905975,165.897537 
	C295.905975,165.897537 295.957184,165.957840 295.979797,165.989960 
	C295.783600,166.273117 295.564758,166.524155 295.107666,166.863678 
z"/>
<path fill="#F4FFFC" opacity="1.000000" stroke="none" 
	d="
M294.080811,167.850693 
	C294.035919,167.660645 294.242554,167.365479 294.706665,166.974121 
	C294.753510,167.167145 294.542938,167.456360 294.080811,167.850693 
z"/>
<path fill="#1C7CC3" opacity="1.000000" stroke="none" 
	d="
M285.687805,175.325455 
	C285.581329,175.074432 285.699554,174.735031 286.117462,174.418198 
	C286.366852,174.780945 286.198639,175.046371 285.687805,175.325455 
z"/>
<path fill="#1C7CC3" opacity="1.000000" stroke="none" 
	d="
M284.679932,176.326294 
	C284.575714,176.077286 284.696686,175.737427 285.117310,175.417847 
	C285.365082,175.780136 285.194458,176.045914 284.679932,176.326294 
z"/>
<path fill="#1C7CC3" opacity="1.000000" stroke="none" 
	d="
M281.668396,179.322021 
	C281.561676,179.066010 281.686371,178.728973 282.110657,178.412796 
	C282.365356,178.781952 282.195251,179.051056 281.668396,179.322021 
z"/>
<path fill="#1C7CC3" opacity="1.000000" stroke="none" 
	d="
M280.672882,180.320648 
	C280.563324,180.068039 280.682343,179.724747 281.102722,179.399246 
	C281.366974,179.768677 281.199402,180.039658 280.672882,180.320648 
z"/>
<path fill="#1C7CC3" opacity="1.000000" stroke="none" 
	d="
M279.675415,181.323151 
	C279.568848,181.071701 279.690125,180.729050 280.113831,180.404083 
	C280.364136,180.767105 280.193146,181.037155 279.675415,181.323151 
z"/>
<path fill="#EAF3FA" opacity="1.000000" stroke="none" 
	d="
M229.910446,186.857788 
	C229.832581,187.017944 229.664551,187.015778 229.244354,187.009827 
	C229.268219,186.902512 229.544235,186.798981 229.910446,186.857788 
z"/>
<path fill="#F6FEFC" opacity="1.000000" stroke="none" 
	d="
M127.757835,187.184570 
	C127.840027,187.364044 127.699966,187.679932 127.326584,188.122833 
	C127.240707,187.940231 127.388138,187.630615 127.757835,187.184570 
z"/>
<path fill="#F4FFFC" opacity="1.000000" stroke="none" 
	d="
M253.803665,95.199188 
	C253.876907,95.387802 253.720703,95.682518 253.328018,96.076599 
	C253.252411,95.885735 253.413315,95.595505 253.803665,95.199188 
z"/>
<path fill="#F4FFFC" opacity="1.000000" stroke="none" 
	d="
M254.850250,94.156006 
	C255.013306,94.404991 254.839691,94.673782 254.322678,94.949936 
	C254.164444,94.697388 254.342545,94.436882 254.850250,94.156006 
z"/>
<path fill="#F4FFFC" opacity="1.000000" stroke="none" 
	d="
M256.087158,93.206856 
	C256.107178,93.403893 255.850021,93.660065 255.325562,93.996460 
	C255.308868,93.806442 255.559433,93.536217 256.087158,93.206856 
z"/>
<path fill="#0092F1" opacity="1.000000" stroke="none" 
	d="
M125.085571,78.259262 
	C125.120003,78.020035 125.542099,78.024574 125.751328,78.049080 
	C125.886246,78.344437 125.741882,78.570564 125.353172,78.858330 
	C125.178886,78.964691 125.051147,78.498489 125.085571,78.259262 
z"/>
<path fill="#F4FFFC" opacity="1.000000" stroke="none" 
	d="
M230.140549,210.882324 
	C229.913818,210.981873 230.080292,210.572449 230.143127,210.361115 
	C230.205978,210.149796 230.610245,210.097549 230.812622,210.073395 
	C230.873123,210.359131 230.657211,210.603638 230.140549,210.882324 
z"/>
<path fill="#F4FFFC" opacity="1.000000" stroke="none" 
	d="
M289.036377,116.941986 
	C289.343536,117.078644 289.599091,117.280609 289.897339,117.781418 
	C289.991730,118.014938 289.939575,118.060410 289.712036,118.015152 
	C289.484528,117.969902 289.025635,117.901535 289.025635,117.901535 
	C289.025635,117.901535 289.021454,117.978119 289.025696,117.744690 
	C289.029907,117.511253 288.948059,117.050957 288.971313,117.024658 
	C288.994537,116.998367 289.036377,116.941986 289.036377,116.941986 
z"/>
<path fill="#F4FFFC" opacity="1.000000" stroke="none" 
	d="
M75.043831,131.022034 
	C74.913788,131.333420 74.714401,131.591141 74.208374,131.886108 
	C73.971069,131.977005 73.921852,131.921738 73.966248,131.697174 
	C74.010651,131.472610 74.080933,131.020218 74.080933,131.020218 
	C74.080933,131.020218 74.011642,131.010681 74.244736,131.013672 
	C74.477829,131.016647 74.931732,130.931168 74.958740,130.955139 
	C74.985756,130.979095 75.043831,131.022034 75.043831,131.022034 
z"/>
<path fill="#F4FFFC" opacity="1.000000" stroke="none" 
	d="
M76.048454,130.023560 
	C75.920708,130.328445 75.726181,130.582108 75.254349,130.903305 
	C75.043831,131.022034 74.985756,130.979095 75.004532,130.729462 
	C75.023315,130.479813 75.086784,130.023666 75.086784,130.023666 
	C75.086784,130.023666 75.014984,130.016525 75.253357,130.017471 
	C75.491722,130.018417 75.938179,129.930939 75.964539,129.955536 
	C75.990906,129.980118 76.048454,130.023560 76.048454,130.023560 
z"/>
<path fill="#F4FFFC" opacity="1.000000" stroke="none" 
	d="
M77.047607,129.028946 
	C76.920540,129.332413 76.727089,129.585037 76.257858,129.905197 
	C76.048454,130.023560 75.990906,129.980118 76.047638,129.718872 
	C76.381294,129.285126 76.658218,129.112595 76.962479,128.963287 
	C76.989822,128.986481 77.047607,129.028946 77.047607,129.028946 
z"/>
<path fill="#F4FFFC" opacity="1.000000" stroke="none" 
	d="
M78.016769,128.030563 
	C77.910271,128.355972 77.717506,128.602036 77.253769,128.913132 
	C77.047607,129.028946 76.989822,128.986481 77.007820,128.742218 
	C77.025818,128.497971 77.108673,128.054337 77.108673,128.054337 
	C77.108673,128.054337 77.031555,128.027084 77.267204,128.030640 
	C77.502853,128.034195 77.947922,127.948578 77.947922,127.948578 
	C77.947922,127.948578 77.995331,128.001999 78.016769,128.030563 
z"/>
<path fill="#F4FFFC" opacity="1.000000" stroke="none" 
	d="
M281.005646,108.969719 
	C281.321655,109.092400 281.583435,109.287735 281.882812,109.793556 
	C281.974640,110.031403 281.918457,110.081688 281.693390,110.038071 
	C281.468323,109.994446 281.013916,109.933212 281.013916,109.933212 
	C281.013916,109.933212 281.004517,109.997353 280.999542,109.765976 
	C280.994568,109.534592 280.913727,109.085274 280.938232,109.057587 
	C280.962708,109.029907 281.005646,108.969719 281.005646,108.969719 
z"/>
<path fill="#1C7CC3" opacity="1.000000" stroke="none" 
	d="
M291.049927,119.774658 
	C290.802765,119.789215 290.522491,119.594116 290.381927,119.203423 
	C290.521606,119.007828 290.962372,119.143982 290.962372,119.143982 
	C290.962372,119.143982 291.016815,119.564995 291.049927,119.774658 
z"/>
<path fill="#F4FFFC" opacity="1.000000" stroke="none" 
	d="
M290.873596,118.904053 
	C290.962372,119.143982 290.521606,119.007828 290.296570,118.956421 
	C290.071503,118.905022 290.037720,118.961525 290.034546,118.738235 
	C290.031372,118.514954 289.939575,118.060410 289.939575,118.060410 
	C289.939575,118.060410 289.991730,118.014938 290.019836,117.995117 
	C290.293610,118.204910 290.539215,118.434517 290.873596,118.904053 
z"/>
<path fill="#F4FFFC" opacity="1.000000" stroke="none" 
	d="
M288.034485,115.942047 
	C288.335785,116.073662 288.588318,116.268501 288.914246,116.734276 
	C289.036377,116.941986 288.994537,116.998367 288.746460,116.974411 
	C288.498413,116.950447 288.045990,116.863426 288.045990,116.863426 
	C288.045990,116.863426 288.044373,116.949226 288.044922,116.719795 
	C288.045441,116.490364 287.944122,116.050903 287.968018,116.024780 
	C287.991943,115.998650 288.034485,115.942047 288.034485,115.942047 
z"/>
<path fill="#F4FFFC" opacity="1.000000" stroke="none" 
	d="
M287.033325,114.947258 
	C287.335724,115.075562 287.588348,115.268921 287.912811,115.734695 
	C288.034485,115.942047 287.991943,115.998650 287.727417,115.947639 
	C287.289368,115.618378 287.115814,115.340126 286.966034,115.034012 
	C286.989807,115.006157 287.033325,114.947258 287.033325,114.947258 
z"/>
<path fill="#F4FFFC" opacity="1.000000" stroke="none" 
	d="
M286.038177,113.940308 
	C286.339020,114.073502 286.590698,114.269745 286.913269,114.738144 
	C287.033325,114.947258 286.989807,115.006157 286.747620,114.984154 
	C286.505463,114.962151 286.066467,114.872749 286.066467,114.872749 
	C286.066467,114.872749 286.049957,114.955528 286.046539,114.728882 
	C286.043121,114.502243 285.949432,114.050491 285.972748,114.023857 
	C285.996063,113.997223 286.038177,113.940308 286.038177,113.940308 
z"/>
<path fill="#F4FFFC" opacity="1.000000" stroke="none" 
	d="
M285.020935,112.953522 
	C285.326050,113.078804 285.582245,113.269714 285.913879,113.733284 
	C286.038177,113.940308 285.996063,113.997223 285.742706,113.978882 
	C285.489349,113.960541 285.025024,113.895638 285.025024,113.895638 
	C285.025024,113.895638 285.032074,113.971237 285.023438,113.739395 
	C285.014832,113.507561 284.926636,113.065948 284.951691,113.039085 
	C284.976746,113.012222 285.020935,112.953522 285.020935,112.953522 
z"/>
<path fill="#F4FFFC" opacity="1.000000" stroke="none" 
	d="
M284.019775,111.961655 
	C284.325745,112.084236 284.580444,112.275169 284.902405,112.743988 
	C285.020935,112.953522 284.976746,113.012222 284.715027,112.957428 
	C284.278229,112.627991 284.103180,112.353348 283.952087,112.050262 
	C283.976044,112.021835 284.019775,111.961655 284.019775,111.961655 
z"/>
<path fill="#F4FFFC" opacity="1.000000" stroke="none" 
	d="
M283.013977,110.964394 
	C283.322540,111.086151 283.578888,111.277748 283.901398,111.750420 
	C284.019775,111.961655 283.976044,112.021835 283.728638,112.008804 
	C283.481201,111.995766 283.032379,111.923965 283.032379,111.923965 
	C283.032379,111.923965 283.011017,111.989693 283.009827,111.759659 
	C283.008606,111.529625 282.919403,111.080650 282.944336,111.052628 
	C282.969238,111.024597 283.013977,110.964394 283.013977,110.964394 
z"/>
<path fill="#F4FFFC" opacity="1.000000" stroke="none" 
	d="
M282.004822,110.008797 
	C282.339966,110.100761 282.590790,110.287918 282.900696,110.756027 
	C283.013977,110.964394 282.969238,111.024597 282.719604,111.008461 
	C282.469971,110.992325 282.017426,110.921562 282.017426,110.921562 
	C282.017426,110.921562 282.009491,110.990517 282.008484,110.760315 
	C282.007477,110.530106 281.918457,110.081688 281.918457,110.081688 
	C281.918457,110.081688 281.974640,110.031403 282.004822,110.008797 
z"/>
<path fill="#F4FFFC" opacity="1.000000" stroke="none" 
	d="
M277.999664,106.019112 
	C278.342896,106.110916 278.596863,106.303528 278.872253,106.810852 
	C278.952637,107.047852 278.892578,107.098969 278.658173,107.013199 
	C278.135468,106.722305 277.965546,106.444710 277.914001,106.094658 
	C277.914001,106.094658 277.969330,106.042213 277.999664,106.019112 
z"/>
<path fill="#F6FEFC" opacity="1.000000" stroke="none" 
	d="
M78.796013,159.935867 
	C78.587341,160.005783 78.287155,159.818756 77.893166,159.377029 
	C78.101074,159.307861 78.402786,159.493393 78.796013,159.935867 
z"/>
<path fill="#F4FFFC" opacity="1.000000" stroke="none" 
	d="
M303.132141,158.855072 
	C303.081543,158.670929 303.271301,158.376022 303.712280,157.983795 
	C303.766510,158.172424 303.569519,158.458389 303.132141,158.855072 
z"/>
<path fill="#F6FEFC" opacity="1.000000" stroke="none" 
	d="
M77.788162,158.937988 
	C77.586159,159.003677 77.281509,158.807022 76.862328,158.357056 
	C77.060371,158.294373 77.372932,158.485016 77.788162,158.937988 
z"/>
<path fill="#F4FFFC" opacity="1.000000" stroke="none" 
	d="
M305.124451,156.854919 
	C305.075806,156.668289 305.267975,156.374542 305.715179,155.993103 
	C305.768585,156.186203 305.566925,156.467010 305.124451,156.854919 
z"/>
<path fill="#F6FEFC" opacity="1.000000" stroke="none" 
	d="
M75.761169,156.976013 
	C75.554306,157.027435 75.273407,156.816177 74.904045,156.348572 
	C75.106094,156.299271 75.396614,156.506302 75.761169,156.976013 
z"/>
<path fill="#F4FFFC" opacity="1.000000" stroke="none" 
	d="
M306.142761,155.855118 
	C306.094604,155.678238 306.285980,155.384811 306.720703,154.979401 
	C306.770111,155.157806 306.576172,155.448196 306.142761,155.855118 
z"/>
<path fill="#F6FEFC" opacity="1.000000" stroke="none" 
	d="
M74.803787,155.929092 
	C74.597923,155.998138 74.299370,155.813553 73.908279,155.376556 
	C74.114189,155.307907 74.412636,155.491684 74.803787,155.929092 
z"/>
<path fill="#F6FEFC" opacity="1.000000" stroke="none" 
	d="
M73.789398,154.926575 
	C73.585060,154.987946 73.293510,154.792191 72.908279,154.341690 
	C73.110466,154.281097 73.406326,154.475266 73.789398,154.926575 
z"/>
<path fill="#F4FFFC" opacity="1.000000" stroke="none" 
	d="
M308.099731,153.849533 
	C308.055908,153.669693 308.262512,153.375031 308.715393,152.960144 
	C308.757782,153.138168 308.553955,153.436432 308.099731,153.849533 
z"/>
<path fill="#F4FFFC" opacity="1.000000" stroke="none" 
	d="
M301.964661,159.360657 
	C302.152405,159.119736 302.313049,159.068161 302.718597,158.951706 
	C302.763580,159.168854 302.563660,159.450882 302.118683,159.830063 
	C301.873657,159.927200 301.937500,159.550003 301.964661,159.360657 
z"/>
<path fill="#F4FFFC" opacity="1.000000" stroke="none" 
	d="
M279.843018,107.891342 
	C279.922729,108.130180 279.527863,108.071609 279.263184,107.814667 
	C278.998474,107.557732 278.892578,107.098969 278.892578,107.098969 
	C278.892578,107.098969 278.952637,107.047852 278.984619,107.025238 
	C279.265503,107.219246 279.514435,107.435875 279.843018,107.891342 
z"/>
<path fill="#F6FEFC" opacity="1.000000" stroke="none" 
	d="
M65.947525,139.365356 
	C66.130531,139.123657 66.290367,139.066315 66.691147,138.927368 
	C66.740944,139.135727 66.549812,139.425690 66.112885,139.816299 
	C65.867088,139.916946 65.924355,139.549728 65.947525,139.365356 
z"/>
<path fill="#F4FFFC" opacity="1.000000" stroke="none" 
	d="
M279.996124,108.841751 
	C279.996124,108.841751 279.936829,108.459297 279.902771,108.269081 
	C280.159882,108.233406 280.451080,108.387947 280.873962,108.756104 
	C281.005646,108.969719 280.962708,109.029907 280.707336,109.002319 
	C280.451935,108.974739 279.996124,108.841751 279.996124,108.841751 
z"/>
<path fill="#F4FFFC" opacity="1.000000" stroke="none" 
	d="
M70.993118,135.728638 
	C70.805923,135.996231 70.615616,135.992661 70.139458,135.965607 
	C70.048851,135.654678 70.244095,135.367249 70.692284,134.998413 
	C70.960159,135.097183 70.975082,135.277328 70.993118,135.728638 
z"/>
<path fill="#F4FFFC" opacity="1.000000" stroke="none" 
	d="
M71.116280,134.861816 
	C70.875290,134.953674 70.979630,134.500656 71.024536,134.272461 
	C71.069450,134.044250 71.014969,134.019806 71.239410,134.009979 
	C71.463844,134.000137 71.911247,133.911407 71.939941,133.936951 
	C71.968643,133.962509 72.030380,134.008270 72.030380,134.008270 
	C71.806015,134.262177 71.581642,134.516068 71.116280,134.861816 
z"/>
<path fill="#F4FFFC" opacity="1.000000" stroke="none" 
	d="
M73.029999,133.008240 
	C72.910362,133.318115 72.719078,133.574539 72.243256,133.892883 
	C72.030380,134.008270 71.968643,133.962509 71.984116,133.712952 
	C71.999588,133.463379 72.079086,133.013718 72.079086,133.013718 
	C72.079086,133.013718 72.008850,133.008820 72.236084,133.004120 
	C72.463318,132.999435 72.910660,132.910767 72.939407,132.936462 
	C72.968163,132.962158 73.029999,133.008240 73.029999,133.008240 
z"/>
<path fill="#F4FFFC" opacity="1.000000" stroke="none" 
	d="
M73.993187,132.006683 
	C73.899254,132.341049 73.710518,132.590836 73.239548,132.896957 
	C73.029999,133.008240 72.968163,132.962158 72.983589,132.713165 
	C72.999016,132.464157 73.077644,132.015747 73.077644,132.015747 
	C73.077644,132.015747 73.008476,132.009338 73.239761,132.009689 
	C73.471039,132.010040 73.921852,131.921738 73.921852,131.921738 
	C73.921852,131.921738 73.971069,131.977005 73.993187,132.006683 
z"/>
<path fill="#0092F1" opacity="1.000000" stroke="none" 
	d="
M174.997314,76.105911 
	C176.066208,76.094482 177.135086,76.083054 178.881516,76.334465 
	C181.704742,76.434631 183.850433,76.271950 185.996124,76.109283 
	C186.442520,76.101418 186.888931,76.093544 187.918243,76.332420 
	C189.999603,76.423553 191.498032,76.267944 192.996460,76.112335 
	C194.712906,76.095398 196.429352,76.078461 198.885010,76.338852 
	C203.414658,76.746071 207.205109,76.875977 210.995544,77.005875 
	C209.765961,77.336807 208.537262,77.952194 207.306641,77.956093 
	C188.213440,78.016685 169.119980,78.003174 150.026596,77.979897 
	C149.219101,77.978912 148.411942,77.717003 147.770721,77.289032 
	C152.073349,77.001373 156.213898,77.116356 160.345322,76.971466 
	C165.233429,76.800049 170.113663,76.404373 174.997314,76.105911 
z"/>
<path fill="#1C7CC3" opacity="1.000000" stroke="none" 
	d="
M229.337341,190.165497 
	C229.790039,190.211014 229.797516,190.614258 229.776428,190.814865 
	C212.451843,190.998184 195.148315,190.980881 177.371399,190.938080 
	C177.931046,190.604645 178.963913,190.029510 179.997223,190.028671 
	C196.292984,190.015533 212.588821,190.076248 229.337341,190.165497 
z"/>
<path fill="#0295F9" opacity="1.000000" stroke="none" 
	d="
M193.697052,94.706390 
	C182.987503,94.991951 171.976334,94.989815 160.500809,94.976257 
	C161.758377,94.643036 163.481537,94.038849 165.202011,94.046371 
	C174.600174,94.087463 183.997681,94.278915 193.697052,94.706390 
z"/>
<path fill="#0181DE" opacity="1.000000" stroke="none" 
	d="
M174.530762,76.068008 
	C170.113663,76.404373 165.233429,76.800049 160.345322,76.971466 
	C156.213898,77.116356 152.073349,77.001373 147.468109,77.002060 
	C146.999390,77.002724 146.991882,76.544914 146.985565,76.316910 
	C156.007553,76.069305 165.035889,76.049698 174.530762,76.068008 
z"/>
<path fill="#0181DE" opacity="1.000000" stroke="none" 
	d="
M211.330505,77.003479 
	C207.205109,76.875977 203.414658,76.746071 199.313843,76.354286 
	C204.360016,76.071404 209.716553,76.050407 215.539352,76.069016 
	C215.225937,76.405731 214.446274,76.702843 213.336060,77.003723 
	C212.558838,77.005348 212.112152,77.003212 211.330505,77.003479 
z"/>
<path fill="#0295F9" opacity="1.000000" stroke="none" 
	d="
M146.668350,94.684036 
	C142.297989,94.976257 137.630280,94.985809 132.501297,94.978241 
	C136.817017,94.774536 141.594009,94.587952 146.668350,94.684036 
z"/>
<path fill="#0092F1" opacity="1.000000" stroke="none" 
	d="
M138.130234,76.514580 
	C139.737076,76.141495 141.424866,76.111710 143.531738,76.125313 
	C142.378647,79.238716 140.330109,78.341469 138.130234,76.514580 
z"/>
<path fill="#0295F9" opacity="1.000000" stroke="none" 
	d="
M156.689468,94.690697 
	C154.611649,94.968796 152.263214,94.976746 149.475891,94.974014 
	C151.497604,94.782410 153.958237,94.601479 156.689468,94.690697 
z"/>
<path fill="#0092F1" opacity="1.000000" stroke="none" 
	d="
M133.016525,76.038750 
	C133.752792,76.054138 134.489059,76.069534 135.589951,76.128998 
	C135.101761,76.610901 134.248962,77.048721 133.201019,77.003319 
	C133.005905,76.520096 133.016525,76.038750 133.016525,76.038750 
z"/>
<path fill="#0181DE" opacity="1.000000" stroke="none" 
	d="
M132.597488,76.021667 
	C133.016525,76.038750 133.005905,76.520096 133.003571,76.760910 
	C131.608276,77.000450 130.215317,76.999184 128.402008,76.989822 
	C127.981651,76.981735 127.993858,76.494469 128.000931,76.251266 
	C129.398163,76.006905 130.788300,76.005753 132.597488,76.021667 
z"/>
<path fill="#0092F1" opacity="1.000000" stroke="none" 
	d="
M139.880615,208.846405 
	C140.086517,209.102509 139.639069,209.128098 139.416840,209.129272 
	C138.436340,209.004150 137.678085,208.877853 136.919830,208.751556 
	C136.961670,208.520798 137.003494,208.290024 137.045319,208.059265 
	C137.921783,208.236282 138.798248,208.413284 139.880615,208.846405 
z"/>
<path fill="#60A9CF" opacity="1.000000" stroke="none" 
	d="
M194.040009,96.730804 
	C193.516663,96.959869 193.037750,96.898109 192.226822,96.691277 
	C192.406342,96.333656 192.917862,96.121109 193.715012,95.883072 
	C194.028564,96.051727 194.056488,96.245857 194.040009,96.730804 
z"/>
<path fill="#0092F1" opacity="1.000000" stroke="none" 
	d="
M127.138519,77.874168 
	C127.108421,77.710304 127.313118,77.450012 127.745575,77.085815 
	C127.773331,77.247185 127.573334,77.512459 127.138519,77.874168 
z"/>
<path fill="#0092F1" opacity="1.000000" stroke="none" 
	d="
M132.458176,208.523315 
	C132.430786,208.475281 132.485565,208.571335 132.458176,208.523315 
z"/>
<path fill="#1C7CC3" opacity="1.000000" stroke="none" 
	d="
M76.772888,128.073624 
	C77.108673,128.054337 77.025818,128.497971 76.980484,128.719025 
	C76.658218,129.112595 76.381294,129.285126 76.021271,129.694290 
	C75.938179,129.930939 75.491722,130.018417 75.266457,130.051086 
	C75.506493,129.420135 75.971794,128.756531 76.772888,128.073624 
z"/>
<path fill="#1C7CC3" opacity="1.000000" stroke="none" 
	d="
M63.752945,141.036804 
	C63.613503,141.371399 63.166065,141.715775 62.419113,142.102234 
	C62.561378,141.778381 63.003159,141.412476 63.752945,141.036804 
z"/>
<path fill="#1C7CC3" opacity="1.000000" stroke="none" 
	d="
M77.992371,127.646492 
	C77.947922,127.948578 77.502853,128.034195 77.278900,128.069824 
	C77.228706,127.544907 77.402458,126.984352 77.836136,126.275955 
	C78.076309,126.533546 78.056564,126.938972 77.992371,127.646492 
z"/>
<path fill="#1C7CC3" opacity="1.000000" stroke="none" 
	d="
M73.966248,131.697174 
	C73.921852,131.921738 73.471039,132.010040 73.243622,132.044220 
	C73.205154,131.787964 73.394096,131.497559 73.831985,131.113678 
	C74.080933,131.020218 74.010651,131.472610 73.966248,131.697174 
z"/>
<path fill="#1C7CC3" opacity="1.000000" stroke="none" 
	d="
M74.838348,130.117584 
	C75.086784,130.023666 75.023315,130.479813 74.977524,130.705490 
	C74.931732,130.931168 74.477829,131.016647 74.248787,131.048401 
	C74.209801,130.790604 74.399857,130.501053 74.838348,130.117584 
z"/>
<path fill="#1C7CC3" opacity="1.000000" stroke="none" 
	d="
M72.832611,132.115448 
	C73.077644,132.015747 72.999016,132.464157 72.954834,132.687469 
	C72.910660,132.910767 72.463318,132.999435 72.238495,133.039246 
	C72.204979,132.791107 72.396278,132.503128 72.832611,132.115448 
z"/>
<path fill="#1C7CC3" opacity="1.000000" stroke="none" 
	d="
M64.899933,140.082581 
	C64.955612,140.291245 64.747490,140.591446 64.275177,140.979111 
	C64.219368,140.769089 64.427750,140.471603 64.899933,140.082581 
z"/>
<path fill="#1C7CC3" opacity="1.000000" stroke="none" 
	d="
M71.833664,133.113739 
	C72.079086,133.013718 71.999588,133.463379 71.955414,133.687393 
	C71.911247,133.911407 71.463844,134.000137 71.238937,134.039734 
	C71.205444,133.790802 71.396843,133.502289 71.833664,133.113739 
z"/>
<path fill="#1C7CC3" opacity="1.000000" stroke="none" 
	d="
M278.658173,107.013199 
	C278.892578,107.098969 278.998474,107.557732 279.065979,107.783936 
	C278.210144,107.511169 277.286835,107.012215 276.254883,106.206039 
	C276.539459,105.935532 276.932617,105.972229 277.619904,106.051788 
	C277.965546,106.444710 278.135468,106.722305 278.658173,107.013199 
z"/>
<path fill="#1C7CC3" opacity="1.000000" stroke="none" 
	d="
M300.822510,160.024384 
	C301.165131,159.993149 301.021240,160.450821 300.966003,160.684265 
	C300.635498,161.091125 300.360229,161.264557 300.002258,161.674072 
	C299.919525,161.910141 299.474426,161.994980 299.250610,162.030884 
	C299.511139,161.396378 299.995514,160.725998 300.822510,160.024384 
z"/>
<path fill="#1C7CC3" opacity="1.000000" stroke="none" 
	d="
M286.089661,115.211792 
	C286.066467,114.872749 286.505463,114.962151 286.723877,115.012009 
	C287.115814,115.340126 287.289368,115.618378 287.703522,115.973770 
	C287.944122,116.050903 288.045441,116.490364 288.087158,116.712181 
	C287.456848,116.472946 286.784851,116.011894 286.089661,115.211792 
z"/>
<path fill="#1C7CC3" opacity="1.000000" stroke="none" 
	d="
M283.061096,112.257629 
	C283.032379,111.923965 283.481201,111.995766 283.704651,112.037231 
	C284.103180,112.353348 284.278229,112.627991 284.689941,112.984299 
	C284.926636,113.065948 285.014832,113.507561 285.059753,113.728363 
	C284.433075,113.496552 283.761444,113.043930 283.061096,112.257629 
z"/>
<path fill="#1C7CC3" opacity="1.000000" stroke="none" 
	d="
M295.989990,165.661652 
	C295.905975,165.897537 295.462341,165.982056 295.239990,166.022446 
	C295.481110,165.403290 295.944580,164.743744 296.740662,164.055817 
	C297.073273,164.027451 296.992615,164.470917 296.949158,164.692062 
	C296.628448,165.084061 296.351227,165.254929 295.989990,165.661652 
z"/>
<path fill="#1C7CC3" opacity="1.000000" stroke="none" 
	d="
M297.825195,163.110550 
	C298.073181,163.016113 298.006744,163.470795 297.964691,163.696671 
	C297.922638,163.922546 297.470184,164.008102 297.242310,164.042908 
	C297.202026,163.786789 297.389648,163.495895 297.825195,163.110550 
z"/>
<path fill="#1C7CC3" opacity="1.000000" stroke="none" 
	d="
M298.823730,162.109436 
	C299.070160,162.013992 299.001678,162.467316 298.959808,162.692688 
	C298.917938,162.918076 298.468658,163.003098 298.242462,163.038086 
	C298.203278,162.783676 298.390320,162.494278 298.823730,162.109436 
z"/>
<path fill="#1C7CC3" opacity="1.000000" stroke="none" 
	d="
M289.712036,118.015152 
	C289.939575,118.060410 290.031372,118.514954 290.066772,118.744476 
	C289.808502,118.783318 289.514771,118.592628 289.123352,118.151733 
	C289.025635,117.901535 289.484528,117.969902 289.712036,118.015152 
z"/>
<path fill="#1C7CC3" opacity="1.000000" stroke="none" 
	d="
M288.135742,117.119263 
	C288.045990,116.863426 288.498413,116.950447 288.723236,117.000702 
	C288.948059,117.050957 289.029907,117.511253 289.063995,117.742912 
	C288.807220,117.774750 288.516357,117.574928 288.135742,117.119263 
z"/>
<path fill="#1C7CC3" opacity="1.000000" stroke="none" 
	d="
M285.131226,114.143929 
	C285.025024,113.895638 285.489349,113.960541 285.719391,114.005516 
	C285.949432,114.050491 286.043121,114.502243 286.088745,114.728790 
	C285.835388,114.767639 285.536377,114.579926 285.131226,114.143929 
z"/>
<path fill="#1C7CC3" opacity="1.000000" stroke="none" 
	d="
M282.113770,111.168655 
	C282.017426,110.921562 282.469971,110.992325 282.694702,111.036484 
	C282.919403,111.080650 283.008606,111.529625 283.044189,111.756012 
	C282.789886,111.793503 282.500000,111.604622 282.113770,111.168655 
z"/>
<path fill="#1C7CC3" opacity="1.000000" stroke="none" 
	d="
M281.693390,110.038071 
	C281.918457,110.081688 282.007477,110.530106 282.042938,110.756195 
	C281.788879,110.796005 281.499359,110.609718 281.111877,110.178322 
	C281.013916,109.933212 281.468323,109.994446 281.693390,110.038071 
z"/>
<path fill="#1C7CC3" opacity="1.000000" stroke="none" 
	d="
M280.087067,109.104568 
	C279.996124,108.841751 280.451935,108.974739 280.682831,109.030006 
	C280.913727,109.085274 280.994568,109.534592 281.031433,109.760117 
	C280.771515,109.779564 280.474762,109.573479 280.087067,109.104568 
z"/>
<path fill="#0181DE" opacity="1.000000" stroke="none" 
	d="
M185.560638,76.071182 
	C183.850433,76.271950 181.704742,76.434631 179.282150,76.350990 
	C181.045227,76.080811 183.085190,76.056946 185.560638,76.071182 
z"/>
<path fill="#0181DE" opacity="1.000000" stroke="none" 
	d="
M225.529205,76.034103 
	C224.145905,76.231453 222.339233,76.411217 220.267242,76.349518 
	C221.703232,76.077538 223.404541,76.047028 225.529205,76.034103 
z"/>
<path fill="#0181DE" opacity="1.000000" stroke="none" 
	d="
M192.581787,76.072968 
	C191.498032,76.267944 189.999603,76.423553 188.252960,76.343582 
	C189.392197,76.083206 190.779648,76.058403 192.581787,76.072968 
z"/>
</svg>